<svg xmlns="http://www.w3.org/2000/svg" xmlns:xlink="http://www.w3.org/1999/xlink" width="563" zoomAndPan="magnify" viewBox="0 0 422.25 479.999983" height="640" preserveAspectRatio="xMidYMid meet" version="1.0"><defs><g/><clipPath id="id1"><path d="M 4.867188 0.425781 L 416.636719 0.425781 L 416.636719 479.574219 L 4.867188 479.574219 Z M 4.867188 0.425781 " clip-rule="nonzero"/></clipPath><clipPath id="id2"><path d="M 22.792969 21.285156 L 398.625 21.285156 L 398.625 458.507812 L 22.792969 458.507812 Z M 22.792969 21.285156 " clip-rule="nonzero"/></clipPath><clipPath id="id3"><path d="M 138.207031 178.070312 L 185 178.070312 L 185 224 L 138.207031 224 Z M 138.207031 178.070312 " clip-rule="nonzero"/></clipPath><clipPath id="id4"><path d="M 162 185 L 283.449219 185 L 283.449219 306 L 162 306 Z M 162 185 " clip-rule="nonzero"/></clipPath></defs><g clip-path="url(#id1)"><path fill="#d9d9d9" d="M 210.75 0.425781 L 416.636719 120.210938 L 416.636719 359.789062 L 210.75 479.574219 L 4.867188 359.789062 L 4.867188 120.210938 L 210.75 0.425781 " fill-opacity="1" fill-rule="nonzero"/></g><g clip-path="url(#id2)"><path fill="#225e64" d="M 210.707031 21.285156 L 398.621094 130.589844 L 398.621094 349.203125 L 210.707031 458.507812 L 22.796875 349.203125 L 22.796875 130.589844 L 210.707031 21.285156 " fill-opacity="1" fill-rule="nonzero"/></g><g fill="#88c0d0" fill-opacity="1"><g transform="translate(75.452728, 150.917516)"><g><path d="M 5.875 0 L 2.6875 0 L 2.6875 -22.03125 L 5.875 -22.03125 Z M 5.875 0 "/></g></g></g><g fill="#88c0d0" fill-opacity="1"><g transform="translate(84.011416, 150.917516)"><g><path d="M 19.921875 -22.03125 L 19.921875 -1.25 C 19.921875 -0.414062 19.53125 0 18.75 0 L 15.71875 0 C 15.070312 0 14.613281 -0.328125 14.34375 -0.984375 L 7.46875 -16 C 6.707031 -17.65625 6.269531 -18.675781 6.15625 -19.0625 L 5.71875 -19.0625 C 5.820312 -18.21875 5.875 -17.195312 5.875 -16 L 5.875 0 L 2.6875 0 L 2.6875 -20.796875 C 2.6875 -21.617188 3.085938 -22.03125 3.890625 -22.03125 L 6.828125 -22.03125 C 7.453125 -22.03125 7.921875 -21.703125 8.234375 -21.046875 L 14.921875 -6.421875 C 15.003906 -6.222656 15.148438 -5.90625 15.359375 -5.46875 C 15.578125 -5.039062 15.773438 -4.628906 15.953125 -4.234375 C 16.128906 -3.835938 16.296875 -3.46875 16.453125 -3.125 L 16.921875 -3.125 C 16.816406 -4.40625 16.765625 -5.546875 16.765625 -6.546875 L 16.765625 -22.03125 Z M 19.921875 -22.03125 "/></g></g></g><g fill="#88c0d0" fill-opacity="1"><g transform="translate(106.621687, 150.917516)"><g><path d="M 19.921875 -22.03125 L 19.921875 -1.25 C 19.921875 -0.414062 19.53125 0 18.75 0 L 15.71875 0 C 15.070312 0 14.613281 -0.328125 14.34375 -0.984375 L 7.46875 -16 C 6.707031 -17.65625 6.269531 -18.675781 6.15625 -19.0625 L 5.71875 -19.0625 C 5.820312 -18.21875 5.875 -17.195312 5.875 -16 L 5.875 0 L 2.6875 0 L 2.6875 -20.796875 C 2.6875 -21.617188 3.085938 -22.03125 3.890625 -22.03125 L 6.828125 -22.03125 C 7.453125 -22.03125 7.921875 -21.703125 8.234375 -21.046875 L 14.921875 -6.421875 C 15.003906 -6.222656 15.148438 -5.90625 15.359375 -5.46875 C 15.578125 -5.039062 15.773438 -4.628906 15.953125 -4.234375 C 16.128906 -3.835938 16.296875 -3.46875 16.453125 -3.125 L 16.921875 -3.125 C 16.816406 -4.40625 16.765625 -5.546875 16.765625 -6.546875 L 16.765625 -22.03125 Z M 19.921875 -22.03125 "/></g></g></g><g fill="#88c0d0" fill-opacity="1"><g transform="translate(129.231959, 150.917516)"><g><path d="M 10.671875 -22.453125 C 13.941406 -22.453125 16.226562 -21.617188 17.53125 -19.953125 C 18.832031 -18.296875 19.484375 -15.316406 19.484375 -11.015625 C 19.484375 -6.710938 18.832031 -3.726562 17.53125 -2.0625 C 16.226562 -0.40625 13.941406 0.421875 10.671875 0.421875 C 7.410156 0.421875 5.128906 -0.40625 3.828125 -2.0625 C 2.535156 -3.726562 1.890625 -6.710938 1.890625 -11.015625 C 1.890625 -15.316406 2.535156 -18.296875 3.828125 -19.953125 C 5.128906 -21.617188 7.410156 -22.453125 10.671875 -22.453125 Z M 14.9375 -17.75 C 14.15625 -18.988281 12.726562 -19.609375 10.65625 -19.609375 C 8.59375 -19.609375 7.171875 -18.988281 6.390625 -17.75 C 5.617188 -16.519531 5.234375 -14.273438 5.234375 -11.015625 C 5.234375 -7.753906 5.617188 -5.503906 6.390625 -4.265625 C 7.171875 -3.035156 8.59375 -2.421875 10.65625 -2.421875 C 12.726562 -2.421875 14.15625 -3.035156 14.9375 -4.265625 C 15.726562 -5.503906 16.125 -7.753906 16.125 -11.015625 C 16.125 -14.273438 15.726562 -16.519531 14.9375 -17.75 Z M 14.9375 -17.75 "/></g></g></g><g fill="#88c0d0" fill-opacity="1"><g transform="translate(150.59675, 150.917516)"><g><path d="M 19.0625 -22.03125 L 12.546875 -0.890625 C 12.359375 -0.296875 11.957031 0 11.34375 0 L 8.203125 0 C 7.585938 0 7.1875 -0.296875 7 -0.890625 L 0.484375 -22.03125 L 3.765625 -22.03125 L 8.75 -4.890625 C 8.851562 -4.484375 9.054688 -3.671875 9.359375 -2.453125 L 10.21875 -2.453125 C 10.34375 -3.078125 10.546875 -3.890625 10.828125 -4.890625 L 15.78125 -22.03125 Z M 19.0625 -22.03125 "/></g></g></g><g fill="#88c0d0" fill-opacity="1"><g transform="translate(170.141228, 150.917516)"><g><path d="M 14.375 -6.640625 L 5.59375 -6.640625 L 3.546875 0 L 0.28125 0 L 7.1875 -21.171875 C 7.351562 -21.742188 7.75 -22.03125 8.375 -22.03125 L 11.625 -22.03125 C 12.257812 -22.03125 12.644531 -21.742188 12.78125 -21.171875 L 19.703125 0 L 16.421875 0 Z M 13.546875 -9.421875 L 10.953125 -17.796875 C 10.890625 -17.984375 10.796875 -18.28125 10.671875 -18.6875 C 10.554688 -19.09375 10.46875 -19.390625 10.40625 -19.578125 L 9.546875 -19.578125 L 9.03125 -17.796875 L 6.453125 -9.421875 Z M 13.546875 -9.421875 "/></g></g></g><g fill="#88c0d0" fill-opacity="1"><g transform="translate(190.132798, 150.917516)"><g><path d="M 17.921875 -19.1875 L 10.921875 -19.1875 L 10.921875 0 L 7.703125 0 L 7.703125 -19.1875 L 0.765625 -19.1875 L 0.765625 -22.03125 L 17.921875 -22.03125 Z M 17.921875 -19.1875 "/></g></g></g><g fill="#88c0d0" fill-opacity="1"><g transform="translate(208.783078, 150.917516)"><g><path d="M 5.875 0 L 2.6875 0 L 2.6875 -22.03125 L 5.875 -22.03125 Z M 5.875 0 "/></g></g></g><g fill="#88c0d0" fill-opacity="1"><g transform="translate(217.341766, 150.917516)"><g><path d="M 10.671875 -22.453125 C 13.941406 -22.453125 16.226562 -21.617188 17.53125 -19.953125 C 18.832031 -18.296875 19.484375 -15.316406 19.484375 -11.015625 C 19.484375 -6.710938 18.832031 -3.726562 17.53125 -2.0625 C 16.226562 -0.40625 13.941406 0.421875 10.671875 0.421875 C 7.410156 0.421875 5.128906 -0.40625 3.828125 -2.0625 C 2.535156 -3.726562 1.890625 -6.710938 1.890625 -11.015625 C 1.890625 -15.316406 2.535156 -18.296875 3.828125 -19.953125 C 5.128906 -21.617188 7.410156 -22.453125 10.671875 -22.453125 Z M 14.9375 -17.75 C 14.15625 -18.988281 12.726562 -19.609375 10.65625 -19.609375 C 8.59375 -19.609375 7.171875 -18.988281 6.390625 -17.75 C 5.617188 -16.519531 5.234375 -14.273438 5.234375 -11.015625 C 5.234375 -7.753906 5.617188 -5.503906 6.390625 -4.265625 C 7.171875 -3.035156 8.59375 -2.421875 10.65625 -2.421875 C 12.726562 -2.421875 14.15625 -3.035156 14.9375 -4.265625 C 15.726562 -5.503906 16.125 -7.753906 16.125 -11.015625 C 16.125 -14.273438 15.726562 -16.519531 14.9375 -17.75 Z M 14.9375 -17.75 "/></g></g></g><g fill="#88c0d0" fill-opacity="1"><g transform="translate(238.706557, 150.917516)"><g><path d="M 19.921875 -22.03125 L 19.921875 -1.25 C 19.921875 -0.414062 19.53125 0 18.75 0 L 15.71875 0 C 15.070312 0 14.613281 -0.328125 14.34375 -0.984375 L 7.46875 -16 C 6.707031 -17.65625 6.269531 -18.675781 6.15625 -19.0625 L 5.71875 -19.0625 C 5.820312 -18.21875 5.875 -17.195312 5.875 -16 L 5.875 0 L 2.6875 0 L 2.6875 -20.796875 C 2.6875 -21.617188 3.085938 -22.03125 3.890625 -22.03125 L 6.828125 -22.03125 C 7.453125 -22.03125 7.921875 -21.703125 8.234375 -21.046875 L 14.921875 -6.421875 C 15.003906 -6.222656 15.148438 -5.90625 15.359375 -5.46875 C 15.578125 -5.039062 15.773438 -4.628906 15.953125 -4.234375 C 16.128906 -3.835938 16.296875 -3.46875 16.453125 -3.125 L 16.921875 -3.125 C 16.816406 -4.40625 16.765625 -5.546875 16.765625 -6.546875 L 16.765625 -22.03125 Z M 19.921875 -22.03125 "/></g></g></g><g fill="#d9d9d9" fill-opacity="1"><g transform="translate(261.310104, 150.917516)"><g><path d="M 17.921875 -19.1875 L 10.921875 -19.1875 L 10.921875 0 L 7.703125 0 L 7.703125 -19.1875 L 0.765625 -19.1875 L 0.765625 -22.03125 L 17.921875 -22.03125 Z M 17.921875 -19.1875 "/></g></g></g><g fill="#d9d9d9" fill-opacity="1"><g transform="translate(279.960383, 150.917516)"><g><path d="M 16.21875 -2.65625 L 16.390625 -0.1875 C 14.453125 -0.0195312 11.300781 0.0625 6.9375 0.0625 C 5.570312 0.0625 4.492188 -0.289062 3.703125 -1 C 2.910156 -1.71875 2.503906 -2.679688 2.484375 -3.890625 L 2.484375 -18.140625 C 2.503906 -19.359375 2.910156 -20.320312 3.703125 -21.03125 C 4.492188 -21.738281 5.570312 -22.09375 6.9375 -22.09375 C 11.300781 -22.09375 14.453125 -22.007812 16.390625 -21.84375 L 16.21875 -19.359375 L 7.46875 -19.359375 C 6.832031 -19.359375 6.378906 -19.203125 6.109375 -18.890625 C 5.847656 -18.578125 5.71875 -18.050781 5.71875 -17.3125 L 5.71875 -12.90625 L 15.015625 -12.90625 L 15.015625 -10.3125 L 5.71875 -10.3125 L 5.71875 -4.6875 C 5.71875 -3.945312 5.847656 -3.421875 6.109375 -3.109375 C 6.378906 -2.804688 6.832031 -2.65625 7.46875 -2.65625 Z M 16.21875 -2.65625 "/></g></g></g><g fill="#d9d9d9" fill-opacity="1"><g transform="translate(297.908087, 150.917516)"><g><path d="M 14.375 -6.640625 L 5.59375 -6.640625 L 3.546875 0 L 0.28125 0 L 7.1875 -21.171875 C 7.351562 -21.742188 7.75 -22.03125 8.375 -22.03125 L 11.625 -22.03125 C 12.257812 -22.03125 12.644531 -21.742188 12.78125 -21.171875 L 19.703125 0 L 16.421875 0 Z M 13.546875 -9.421875 L 10.953125 -17.796875 C 10.890625 -17.984375 10.796875 -18.28125 10.671875 -18.6875 C 10.554688 -19.09375 10.46875 -19.390625 10.40625 -19.578125 L 9.546875 -19.578125 L 9.03125 -17.796875 L 6.453125 -9.421875 Z M 13.546875 -9.421875 "/></g></g></g><g fill="#d9d9d9" fill-opacity="1"><g transform="translate(317.899658, 150.917516)"><g><path d="M 20.21875 -22.03125 L 23.703125 -22.03125 C 24.523438 -22.03125 24.957031 -21.597656 25 -20.734375 L 25.90625 0 L 22.703125 0 L 21.9375 -19.390625 L 21.296875 -19.390625 L 16.828125 -3.703125 C 16.640625 -2.984375 16.179688 -2.625 15.453125 -2.625 L 12.671875 -2.625 C 11.929688 -2.625 11.46875 -2.984375 11.28125 -3.703125 L 6.765625 -19.390625 L 6.15625 -19.390625 L 5.421875 0 L 2.265625 0 L 3.09375 -20.734375 C 3.132812 -21.597656 3.570312 -22.03125 4.40625 -22.03125 L 7.953125 -22.03125 C 8.609375 -22.03125 9.054688 -21.671875 9.296875 -20.953125 L 13.03125 -8.046875 C 13.238281 -7.285156 13.484375 -6.296875 13.765625 -5.078125 L 14.34375 -5.078125 C 14.59375 -6.203125 14.847656 -7.203125 15.109375 -8.078125 L 18.8125 -20.953125 C 19.039062 -21.671875 19.507812 -22.03125 20.21875 -22.03125 Z M 20.21875 -22.03125 "/></g></g></g><path fill="#d9d9d9" d="M 189.972656 203.65625 L 199.347656 212.996094 L 173.066406 239.179688 L 163.695312 229.84375 L 189.972656 203.65625 " fill-opacity="1" fill-rule="nonzero"/><g clip-path="url(#id3)"><path fill="#d9d9d9" d="M 184.171875 204.101562 L 171.671875 216.554688 L 161.183594 206.101562 L 143.546875 223.671875 L 138.417969 218.554688 L 144.664062 191.421875 L 158.058594 178.082031 L 184.171875 204.101562 " fill-opacity="1" fill-rule="nonzero"/></g><path fill="#d9d9d9" d="M 199.519531 215.832031 L 203.203125 219.5 L 196.378906 226.296875 L 192.695312 222.628906 L 199.519531 215.832031 " fill-opacity="1" fill-rule="nonzero"/><path fill="#d9d9d9" d="M 162.691406 246.523438 L 170.054688 239.179688 L 163.023438 232.175781 L 155.65625 239.515625 L 162.691406 246.523438 " fill-opacity="1" fill-rule="nonzero"/><path fill="#d9d9d9" d="M 160.59375 227.589844 L 170.054688 218.164062 L 162.773438 210.910156 L 148.542969 225.089844 L 152.183594 228.714844 L 160.59375 227.589844 " fill-opacity="1" fill-rule="nonzero"/><path fill="#d9d9d9" d="M 208.679688 246.523438 L 188.46875 226.839844 L 176.808594 238.460938 L 196.25 257.832031 L 208.679688 246.523438 " fill-opacity="1" fill-rule="nonzero"/><path fill="#d9d9d9" d="M 223.050781 261.296875 L 211.054688 272.582031 L 242.09375 303.507812 C 245.792969 307.195312 251.402344 307.582031 254.621094 304.371094 C 257.839844 301.160156 257.453125 295.574219 253.757812 291.890625 L 223.050781 261.296875 " fill-opacity="1" fill-rule="nonzero"/><g clip-path="url(#id4)"><path fill="#d9d9d9" d="M 276.871094 226.824219 L 283.242188 212.285156 L 278.617188 207.675781 L 268.46875 219.324219 L 256.277344 222.257812 L 245.742188 211.765625 L 248.6875 199.613281 L 261.148438 190.269531 L 256.523438 185.664062 L 241.929688 192.011719 L 231.742188 202.164062 L 232.285156 228.242188 L 232.496094 228.449219 L 165.207031 291.953125 C 162.074219 295.078125 162.074219 300.140625 165.207031 303.269531 C 168.34375 306.390625 173.429688 306.390625 176.5625 303.269531 L 241.484375 236.453125 L 266.679688 236.976562 L 276.871094 226.824219 " fill-opacity="1" fill-rule="nonzero"/></g><g fill="#d9d9d9" fill-opacity="1"><g transform="translate(210.745084, 332.706858)"><g/></g></g><g fill="#88c0d0" fill-opacity="1"><g transform="translate(166.73236, 368.362673)"><g><path d="M 19.90625 -23.40625 L 19.90625 -9.015625 C 19.90625 -5.578125 19.265625 -3.140625 17.984375 -1.703125 C 16.710938 -0.273438 14.53125 0.4375 11.4375 0.4375 C 8.25 0.4375 5.992188 -0.273438 4.671875 -1.703125 C 3.347656 -3.140625 2.6875 -5.578125 2.6875 -9.015625 L 2.6875 -23.40625 L 6.078125 -23.40625 L 6.078125 -9.015625 C 6.078125 -6.617188 6.457031 -4.945312 7.21875 -4 C 7.988281 -3.050781 9.347656 -2.578125 11.296875 -2.578125 C 13.210938 -2.578125 14.5625 -3.050781 15.34375 -4 C 16.125 -4.945312 16.515625 -6.617188 16.515625 -9.015625 L 16.515625 -23.40625 Z M 19.90625 -23.40625 "/></g></g></g><g fill="#88c0d0" fill-opacity="1"><g transform="translate(189.318047, 368.362673)"><g><path d="M 19.03125 -20.390625 L 11.59375 -20.390625 L 11.59375 0 L 8.171875 0 L 8.171875 -20.390625 L 0.8125 -20.390625 L 0.8125 -23.40625 L 19.03125 -23.40625 Z M 19.03125 -20.390625 "/></g></g></g><g fill="#88c0d0" fill-opacity="1"><g transform="translate(209.122919, 368.362673)"><g><path d="M 6.234375 0 L 2.84375 0 L 2.84375 -23.40625 L 6.234375 -23.40625 Z M 6.234375 0 "/></g></g></g><g fill="#88c0d0" fill-opacity="1"><g transform="translate(218.211454, 368.362673)"><g><path d="M 6.171875 -23.40625 L 6.171875 -5.015625 C 6.171875 -4.222656 6.328125 -3.660156 6.640625 -3.328125 C 6.960938 -3.003906 7.519531 -2.84375 8.3125 -2.84375 L 16.625 -2.84375 L 16.796875 -0.234375 C 14.597656 -0.0351562 11.585938 0.0625 7.765625 0.0625 C 4.441406 0.0625 2.78125 -1.472656 2.78125 -4.546875 L 2.78125 -23.40625 Z M 6.171875 -23.40625 "/></g></g></g><g fill="#88c0d0" fill-opacity="1"><g transform="translate(235.676366, 368.362673)"><g><path d="M 11.1875 -9.671875 L 6.4375 -10.984375 C 4.769531 -11.441406 3.578125 -12.207031 2.859375 -13.28125 C 2.148438 -14.351562 1.796875 -15.804688 1.796875 -17.640625 C 1.796875 -18.972656 1.9375 -20.050781 2.21875 -20.875 C 2.5 -21.695312 2.988281 -22.320312 3.6875 -22.75 C 4.394531 -23.1875 5.175781 -23.472656 6.03125 -23.609375 C 6.894531 -23.742188 8.050781 -23.8125 9.5 -23.8125 C 12.257812 -23.8125 14.609375 -23.570312 16.546875 -23.09375 L 16.34375 -20.625 C 13.070312 -20.738281 10.835938 -20.796875 9.640625 -20.796875 C 7.867188 -20.796875 6.6875 -20.617188 6.09375 -20.265625 C 5.507812 -19.921875 5.21875 -19.007812 5.21875 -17.53125 C 5.21875 -16.382812 5.425781 -15.570312 5.84375 -15.09375 C 6.269531 -14.625 7.003906 -14.25 8.046875 -13.96875 L 12.6875 -12.6875 C 14.425781 -12.207031 15.648438 -11.4375 16.359375 -10.375 C 17.078125 -9.3125 17.4375 -7.863281 17.4375 -6.03125 C 17.4375 -3.457031 16.847656 -1.738281 15.671875 -0.875 C 14.492188 -0.0195312 12.425781 0.40625 9.46875 0.40625 C 6.976562 0.40625 4.523438 0.179688 2.109375 -0.265625 L 2.34375 -2.78125 C 5.863281 -2.664062 8.257812 -2.609375 9.53125 -2.609375 C 11.289062 -2.628906 12.46875 -2.851562 13.0625 -3.28125 C 13.664062 -3.71875 13.96875 -4.648438 13.96875 -6.078125 C 13.96875 -7.273438 13.765625 -8.101562 13.359375 -8.5625 C 12.953125 -9.03125 12.226562 -9.398438 11.1875 -9.671875 Z M 11.1875 -9.671875 "/></g></g></g><path stroke-linecap="butt" transform="matrix(1.501642, 0.000000000000001427, -0.000000000000001422, 1.49734, 98.632689, 356.1213)" fill="none" stroke-linejoin="miter" d="M 0.0000819735 -0.00013755 L 29.917853 -0.00013755 " stroke="#ffffff" stroke-width="1" stroke-opacity="1" stroke-miterlimit="4"/><path stroke-linecap="butt" transform="matrix(1.501642, 0, 0, 1.49734, 278.070142, 356.1213)" fill="none" stroke-linejoin="miter" d="M 0.000113474 -0.00013755 L 29.917884 -0.00013755 " stroke="#ffffff" stroke-width="1" stroke-opacity="1" stroke-miterlimit="4"/></svg>