<svg xmlns="http://www.w3.org/2000/svg" xmlns:xlink="http://www.w3.org/1999/xlink" width="60" zoomAndPan="magnify" viewBox="0 0 45 60" height="80" preserveAspectRatio="xMidYMid meet" version="1.0"><defs><g/><clipPath id="id1"><path d="M 0.519531 4.421875 L 44.769531 4.421875 L 44.769531 55.421875 L 0.519531 55.421875 Z M 0.519531 4.421875 " clip-rule="nonzero"/></clipPath><clipPath id="id2"><path d="M 2.433594 6.648438 L 42.933594 6.648438 L 42.933594 53.148438 L 2.433594 53.148438 Z M 2.433594 6.648438 " clip-rule="nonzero"/></clipPath><clipPath id="id3"><path d="M 10.453125 19.21875 L 19 19.21875 L 19 27 L 10.453125 27 Z M 10.453125 19.21875 " clip-rule="nonzero"/></clipPath><clipPath id="id4"><path d="M 22 33 L 31 33 L 31 40.96875 L 22 40.96875 Z M 22 33 " clip-rule="nonzero"/></clipPath><clipPath id="id5"><path d="M 14 20 L 34.453125 20 L 34.453125 40.96875 L 14 40.96875 Z M 14 20 " clip-rule="nonzero"/></clipPath></defs><rect x="-4.5" width="54" fill="#ffffff" y="-6" height="72" fill-opacity="1"/><rect x="-4.5" width="54" fill="#ffffff" y="-6" height="72" fill-opacity="1"/><rect x="-4.5" width="54" fill="#ffffff" y="-6" height="72" fill-opacity="1"/><rect x="-4.5" width="54" fill="#ffffff" y="-6" height="72" fill-opacity="1"/><g clip-path="url(#id1)"><path fill="#d9d9d9" d="M 22.644531 4.425781 L 44.769531 17.171875 L 44.769531 42.671875 L 22.644531 55.421875 L 0.519531 42.671875 L 0.519531 17.171875 L 22.644531 4.425781 " fill-opacity="1" fill-rule="nonzero"/></g><g clip-path="url(#id2)"><path fill="#225e64" d="M 22.683594 6.652344 L 42.933594 18.277344 L 42.933594 41.523438 L 22.683594 53.144531 L 2.433594 41.523438 L 2.433594 18.277344 L 22.683594 6.652344 " fill-opacity="1" fill-rule="nonzero"/></g><path fill="#d9d9d9" d="M 19.007812 23.515625 L 20.554688 25.082031 L 16.214844 29.480469 L 14.664062 27.910156 L 19.007812 23.515625 " fill-opacity="1" fill-rule="nonzero"/><g clip-path="url(#id3)"><path fill="#d9d9d9" d="M 18.046875 23.589844 L 15.984375 25.679688 L 14.25 23.925781 L 11.335938 26.875 L 10.488281 26.015625 L 11.519531 21.460938 L 13.734375 19.21875 L 18.046875 23.589844 " fill-opacity="1" fill-rule="nonzero"/></g><path fill="#d9d9d9" d="M 20.582031 25.558594 L 21.191406 26.175781 L 20.066406 27.316406 L 19.457031 26.699219 L 20.582031 25.558594 " fill-opacity="1" fill-rule="nonzero"/><path fill="#d9d9d9" d="M 14.5 30.710938 L 15.714844 29.480469 L 14.554688 28.304688 L 13.335938 29.535156 L 14.5 30.710938 " fill-opacity="1" fill-rule="nonzero"/><path fill="#d9d9d9" d="M 14.152344 27.535156 L 15.714844 25.949219 L 14.511719 24.730469 L 12.160156 27.113281 L 12.761719 27.722656 L 14.152344 27.535156 " fill-opacity="1" fill-rule="nonzero"/><path fill="#d9d9d9" d="M 22.097656 30.710938 L 18.757812 27.40625 L 16.832031 29.359375 L 20.042969 32.613281 L 22.097656 30.710938 " fill-opacity="1" fill-rule="nonzero"/><g clip-path="url(#id4)"><path fill="#d9d9d9" d="M 24.472656 33.191406 L 22.488281 35.089844 L 27.617188 40.28125 C 28.230469 40.902344 29.15625 40.964844 29.6875 40.425781 C 30.21875 39.886719 30.15625 38.949219 29.546875 38.332031 L 24.472656 33.191406 " fill-opacity="1" fill-rule="nonzero"/></g><g clip-path="url(#id5)"><path fill="#d9d9d9" d="M 33.363281 27.40625 L 34.417969 24.964844 L 33.652344 24.1875 L 31.976562 26.144531 L 29.960938 26.636719 L 28.222656 24.875 L 28.707031 22.835938 L 30.765625 21.265625 L 30.003906 20.492188 L 27.589844 21.558594 L 25.90625 23.261719 L 25.996094 27.640625 L 26.03125 27.675781 L 14.914062 38.339844 C 14.394531 38.867188 14.394531 39.714844 14.914062 40.242188 C 15.433594 40.765625 16.273438 40.765625 16.789062 40.242188 L 27.519531 29.019531 L 31.679688 29.109375 L 33.363281 27.40625 " fill-opacity="1" fill-rule="nonzero"/></g><g fill="#d9d9d9" fill-opacity="1"><g transform="translate(22.499404, 39.897499)"><g/></g></g></svg>