<svg xmlns="http://www.w3.org/2000/svg" xmlns:xlink="http://www.w3.org/1999/xlink" width="2048" zoomAndPan="magnify" viewBox="0 0 1536 149.999998" height="200" preserveAspectRatio="xMidYMid meet" version="1.0"><defs><filter x="0%" y="0%" width="100%" height="100%" id="id1"><feColorMatrix values="0 0 0 0 1 0 0 0 0 1 0 0 0 0 1 0 0 0 1 0" color-interpolation-filters="sRGB"/></filter><g/><mask id="id2"><g filter="url(#id1)"><rect x="-153.6" width="1843.2" fill="#000000" y="-15" height="179.999997" fill-opacity="0.149"/></g></mask><clipPath id="id3"><path d="M 0 0 L 1166.816406 0 L 1166.816406 150 L 0 150 Z M 0 0 " clip-rule="nonzero"/></clipPath><clipPath id="id4"><rect x="0" width="1167" y="0" height="150"/></clipPath><clipPath id="id5"><path d="M 896.328125 0 L 1536 0 L 1536 150 L 896.328125 150 Z M 896.328125 0 " clip-rule="nonzero"/></clipPath><clipPath id="id6"><path d="M 43 32.230469 L 52 32.230469 L 52 41 L 43 41 Z M 43 32.230469 " clip-rule="nonzero"/></clipPath><clipPath id="id7"><path d="M 75 55 L 83.347656 55 L 83.347656 64 L 75 64 Z M 75 55 " clip-rule="nonzero"/></clipPath><clipPath id="id8"><path d="M 38.347656 57 L 50 57 L 50 68 L 38.347656 68 Z M 38.347656 57 " clip-rule="nonzero"/></clipPath><clipPath id="id9"><path d="M 40 101 L 50 101 L 50 110.230469 L 40 110.230469 Z M 40 101 " clip-rule="nonzero"/></clipPath></defs><g mask="url(#id2)"><g transform="matrix(1, 0, 0, 1, 0, -0.000000000000007527)"><g clip-path="url(#id4)"><g clip-path="url(#id3)"><path fill="#037f8c" d="M -201.183594 -374.042969 L 1166.816406 -374.042969 L 1166.816406 993.957031 L -201.183594 993.957031 Z M -201.183594 -374.042969 " fill-opacity="1" fill-rule="nonzero"/></g></g></g></g><g clip-path="url(#id5)"><path fill="#225e64" d="M 1553.152344 -504.757812 L 1553.152344 153.425781 L 896.328125 153.425781 Z M 1553.152344 -504.757812 " fill-opacity="1" fill-rule="nonzero"/></g><path fill="#225e64" d="M 66.398438 102.691406 C 64.214844 102.691406 62.441406 100.917969 62.441406 98.730469 C 62.441406 96.539062 64.214844 94.765625 66.398438 94.765625 C 68.582031 94.765625 70.351562 96.539062 70.351562 98.730469 C 70.351562 100.917969 68.582031 102.691406 66.398438 102.691406 " fill-opacity="1" fill-rule="nonzero"/><g clip-path="url(#id6)"><path fill="#225e64" d="M 47.636719 40.167969 C 45.449219 40.167969 43.679688 38.394531 43.679688 36.203125 C 43.679688 34.015625 45.449219 32.242188 47.636719 32.242188 C 49.816406 32.242188 51.589844 34.015625 51.589844 36.203125 C 51.589844 38.394531 49.816406 40.167969 47.636719 40.167969 " fill-opacity="1" fill-rule="nonzero"/></g><g clip-path="url(#id7)"><path fill="#225e64" d="M 79.394531 63.414062 C 77.210938 63.414062 75.441406 61.636719 75.441406 59.449219 C 75.441406 57.257812 77.210938 55.484375 79.394531 55.484375 C 81.578125 55.484375 83.347656 57.257812 83.347656 59.449219 C 83.347656 61.636719 81.578125 63.414062 79.394531 63.414062 " fill-opacity="1" fill-rule="nonzero"/></g><path fill="#037f8c" d="M 52.96875 79.441406 C 50.78125 79.441406 49.011719 77.667969 49.011719 75.476562 C 49.011719 73.289062 50.78125 71.515625 52.96875 71.515625 C 55.148438 71.515625 56.921875 73.289062 56.921875 75.476562 C 56.921875 77.667969 55.148438 79.441406 52.96875 79.441406 " fill-opacity="1" fill-rule="nonzero"/><g clip-path="url(#id8)"><path fill="#037f8c" d="M 43.679688 67.789062 C 40.734375 67.789062 38.347656 65.398438 38.347656 62.449219 C 38.347656 59.496094 40.734375 57.105469 43.679688 57.105469 C 46.625 57.105469 49.011719 59.496094 49.011719 62.449219 C 49.011719 65.398438 46.625 67.789062 43.679688 67.789062 " fill-opacity="1" fill-rule="nonzero"/></g><path fill="#037f8c" d="M 66.398438 80.820312 C 63.453125 80.820312 61.066406 78.429688 61.066406 75.476562 C 61.066406 72.527344 63.453125 70.132812 66.398438 70.132812 C 69.339844 70.132812 71.730469 72.527344 71.730469 75.476562 C 71.730469 78.429688 69.339844 80.820312 66.398438 80.820312 " fill-opacity="1" fill-rule="nonzero"/><path fill="#037f8c" d="M 49.011719 95.300781 C 46.394531 95.210938 44.421875 93.230469 44.332031 90.609375 C 44.242188 87.988281 46.527344 86 49.011719 85.917969 C 51.625 85.828125 53.609375 88.117188 53.691406 90.609375 C 53.78125 93.226562 51.496094 95.214844 49.011719 95.300781 C 48.175781 95.324219 48.171875 96.628906 49.011719 96.605469 C 52.351562 96.488281 54.882812 93.953125 54.992188 90.609375 C 55.105469 87.265625 52.179688 84.71875 49.011719 84.613281 C 45.675781 84.5 43.136719 87.429688 43.03125 90.609375 C 42.914062 93.949219 45.84375 96.496094 49.011719 96.605469 C 49.851562 96.628906 49.847656 95.324219 49.011719 95.300781 " fill-opacity="1" fill-rule="nonzero"/><path fill="#037f8c" d="M 54.34375 54.921875 C 51.726562 54.835938 49.75 52.855469 49.660156 50.234375 C 49.574219 47.613281 51.859375 45.625 54.34375 45.542969 C 56.957031 45.453125 58.9375 47.742188 59.023438 50.234375 C 59.109375 52.851562 56.828125 54.839844 54.34375 54.921875 C 53.507812 54.949219 53.5 56.257812 54.34375 56.230469 C 57.679688 56.117188 60.210938 53.578125 60.324219 50.234375 C 60.4375 46.890625 57.511719 44.34375 54.34375 44.238281 C 51.007812 44.125 48.464844 47.054688 48.359375 50.234375 C 48.246094 53.574219 51.171875 56.121094 54.34375 56.230469 C 55.179688 56.257812 55.179688 54.949219 54.34375 54.921875 " fill-opacity="1" fill-rule="nonzero"/><g clip-path="url(#id9)"><path fill="#037f8c" d="M 44.894531 110.21875 C 42.621094 110.21875 40.78125 108.371094 40.78125 106.09375 C 40.78125 103.8125 42.621094 101.96875 44.894531 101.96875 C 47.167969 101.96875 49.011719 103.8125 49.011719 106.09375 C 49.011719 108.371094 47.167969 110.21875 44.894531 110.21875 " fill-opacity="1" fill-rule="nonzero"/></g><g fill="#ffffff" fill-opacity="1"><g transform="translate(1175.027981, 77.468621)"><g><path d="M 3.75 0 L 3.75 -26.484375 L 5.59375 -26.484375 L 5.59375 0 Z M 3.75 0 "/></g></g></g><g fill="#ffffff" fill-opacity="1"><g transform="translate(1184.373737, 77.468621)"><g><path d="M 23 0 L 21.140625 0 L 5.453125 -23.515625 L 5.3125 -23.515625 C 5.457031 -20.710938 5.53125 -18.597656 5.53125 -17.171875 L 5.53125 0 L 3.75 0 L 3.75 -26.484375 L 5.59375 -26.484375 L 21.265625 -3 L 21.375 -3 C 21.257812 -5.175781 21.203125 -7.242188 21.203125 -9.203125 L 21.203125 -26.484375 L 23 -26.484375 Z M 23 0 "/></g></g></g><g fill="#ffffff" fill-opacity="1"><g transform="translate(1211.125058, 77.468621)"><g><path d="M 23 0 L 21.140625 0 L 5.453125 -23.515625 L 5.3125 -23.515625 C 5.457031 -20.710938 5.53125 -18.597656 5.53125 -17.171875 L 5.53125 0 L 3.75 0 L 3.75 -26.484375 L 5.59375 -26.484375 L 21.265625 -3 L 21.375 -3 C 21.257812 -5.175781 21.203125 -7.242188 21.203125 -9.203125 L 21.203125 -26.484375 L 23 -26.484375 Z M 23 0 "/></g></g></g><g fill="#ffffff" fill-opacity="1"><g transform="translate(1237.876379, 77.468621)"><g><path d="M 26.015625 -13.28125 C 26.015625 -9.070312 24.960938 -5.742188 22.859375 -3.296875 C 20.753906 -0.859375 17.851562 0.359375 14.15625 0.359375 C 10.476562 0.359375 7.585938 -0.859375 5.484375 -3.296875 C 3.390625 -5.742188 2.34375 -9.082031 2.34375 -13.3125 C 2.34375 -17.53125 3.398438 -20.847656 5.515625 -23.265625 C 7.628906 -25.679688 10.523438 -26.890625 14.203125 -26.890625 C 17.898438 -26.890625 20.789062 -25.671875 22.875 -23.234375 C 24.96875 -20.804688 26.015625 -17.488281 26.015625 -13.28125 Z M 4.34375 -13.28125 C 4.34375 -9.488281 5.1875 -6.554688 6.875 -4.484375 C 8.570312 -2.410156 11 -1.375 14.15625 -1.375 C 17.351562 -1.375 19.789062 -2.398438 21.46875 -4.453125 C 23.15625 -6.503906 24 -9.445312 24 -13.28125 C 24 -17.09375 23.15625 -20.015625 21.46875 -22.046875 C 19.789062 -24.085938 17.367188 -25.109375 14.203125 -25.109375 C 11.046875 -25.109375 8.613281 -24.082031 6.90625 -22.03125 C 5.195312 -19.976562 4.34375 -17.0625 4.34375 -13.28125 Z M 4.34375 -13.28125 "/></g></g></g><g fill="#ffffff" fill-opacity="1"><g transform="translate(1266.22155, 77.468621)"><g><path d="M 19.390625 -26.484375 L 21.40625 -26.484375 L 11.5 0 L 9.875 0 L 0 -26.484375 L 1.96875 -26.484375 L 8.640625 -8.453125 C 9.648438 -5.742188 10.332031 -3.707031 10.6875 -2.34375 C 10.925781 -3.238281 11.398438 -4.644531 12.109375 -6.5625 Z M 19.390625 -26.484375 "/></g></g></g><g fill="#ffffff" fill-opacity="1"><g transform="translate(1287.629852, 77.468621)"><g><path d="M 16.5 -9.34375 L 5.734375 -9.34375 L 2.046875 0 L 0 0 L 10.65625 -26.59375 L 11.828125 -26.59375 L 22.265625 0 L 20.171875 0 Z M 6.40625 -11.015625 L 15.890625 -11.015625 L 12.28125 -20.5625 C 11.976562 -21.3125 11.613281 -22.347656 11.1875 -23.671875 C 10.863281 -22.515625 10.507812 -21.460938 10.125 -20.515625 Z M 6.40625 -11.015625 "/></g></g></g><g fill="#ffffff" fill-opacity="1"><g transform="translate(1309.889414, 77.468621)"><g><path d="M 10.65625 0 L 8.78125 0 L 8.78125 -24.734375 L 0.1875 -24.734375 L 0.1875 -26.484375 L 19.25 -26.484375 L 19.25 -24.734375 L 10.65625 -24.734375 Z M 10.65625 0 "/></g></g></g><g fill="#ffffff" fill-opacity="1"><g transform="translate(1329.323508, 77.468621)"><g><path d="M 3.75 0 L 3.75 -26.484375 L 5.59375 -26.484375 L 5.59375 0 Z M 3.75 0 "/></g></g></g><g fill="#ffffff" fill-opacity="1"><g transform="translate(1338.669264, 77.468621)"><g><path d="M 26.015625 -13.28125 C 26.015625 -9.070312 24.960938 -5.742188 22.859375 -3.296875 C 20.753906 -0.859375 17.851562 0.359375 14.15625 0.359375 C 10.476562 0.359375 7.585938 -0.859375 5.484375 -3.296875 C 3.390625 -5.742188 2.34375 -9.082031 2.34375 -13.3125 C 2.34375 -17.53125 3.398438 -20.847656 5.515625 -23.265625 C 7.628906 -25.679688 10.523438 -26.890625 14.203125 -26.890625 C 17.898438 -26.890625 20.789062 -25.671875 22.875 -23.234375 C 24.96875 -20.804688 26.015625 -17.488281 26.015625 -13.28125 Z M 4.34375 -13.28125 C 4.34375 -9.488281 5.1875 -6.554688 6.875 -4.484375 C 8.570312 -2.410156 11 -1.375 14.15625 -1.375 C 17.351562 -1.375 19.789062 -2.398438 21.46875 -4.453125 C 23.15625 -6.503906 24 -9.445312 24 -13.28125 C 24 -17.09375 23.15625 -20.015625 21.46875 -22.046875 C 19.789062 -24.085938 17.367188 -25.109375 14.203125 -25.109375 C 11.046875 -25.109375 8.613281 -24.082031 6.90625 -22.03125 C 5.195312 -19.976562 4.34375 -17.0625 4.34375 -13.28125 Z M 4.34375 -13.28125 "/></g></g></g><g fill="#ffffff" fill-opacity="1"><g transform="translate(1367.014442, 77.468621)"><g><path d="M 23 0 L 21.140625 0 L 5.453125 -23.515625 L 5.3125 -23.515625 C 5.457031 -20.710938 5.53125 -18.597656 5.53125 -17.171875 L 5.53125 0 L 3.75 0 L 3.75 -26.484375 L 5.59375 -26.484375 L 21.265625 -3 L 21.375 -3 C 21.257812 -5.175781 21.203125 -7.242188 21.203125 -9.203125 L 21.203125 -26.484375 L 23 -26.484375 Z M 23 0 "/></g></g></g><g fill="#d9d9d9" fill-opacity="1"><g transform="translate(1393.763891, 77.468621)"><g><path d="M 10.65625 0 L 8.78125 0 L 8.78125 -24.734375 L 0.1875 -24.734375 L 0.1875 -26.484375 L 19.25 -26.484375 L 19.25 -24.734375 L 10.65625 -24.734375 Z M 10.65625 0 "/></g></g></g><g fill="#d9d9d9" fill-opacity="1"><g transform="translate(1413.197992, 77.468621)"><g><path d="M 18.21875 0 L 3.75 0 L 3.75 -26.484375 L 18.21875 -26.484375 L 18.21875 -24.78125 L 5.59375 -24.78125 L 5.59375 -14.765625 L 17.515625 -14.765625 L 17.515625 -13.0625 L 5.59375 -13.0625 L 5.59375 -1.703125 L 18.21875 -1.703125 Z M 18.21875 0 "/></g></g></g><g fill="#d9d9d9" fill-opacity="1"><g transform="translate(1433.664473, 77.468621)"><g><path d="M 16.5 -9.34375 L 5.734375 -9.34375 L 2.046875 0 L 0 0 L 10.65625 -26.59375 L 11.828125 -26.59375 L 22.265625 0 L 20.171875 0 Z M 6.40625 -11.015625 L 15.890625 -11.015625 L 12.28125 -20.5625 C 11.976562 -21.3125 11.613281 -22.347656 11.1875 -23.671875 C 10.863281 -22.515625 10.507812 -21.460938 10.125 -20.515625 Z M 6.40625 -11.015625 "/></g></g></g><g fill="#d9d9d9" fill-opacity="1"><g transform="translate(1455.924035, 77.468621)"><g><path d="M 15.390625 0 L 5.53125 -24.453125 L 5.375 -24.453125 C 5.476562 -22.953125 5.53125 -21.414062 5.53125 -19.84375 L 5.53125 0 L 3.75 0 L 3.75 -26.484375 L 6.609375 -26.484375 L 16 -3.1875 L 16.109375 -3.1875 L 25.484375 -26.484375 L 28.265625 -26.484375 L 28.265625 0 L 26.40625 0 L 26.40625 -20.0625 C 26.40625 -21.46875 26.476562 -22.921875 26.625 -24.421875 L 26.484375 -24.421875 L 16.578125 0 Z M 15.390625 0 "/></g></g></g><g fill="#ffffff" fill-opacity="1"><g transform="translate(1358.752671, 107.264543)"><g><path d="M 8.046875 0 L 6.734375 -3.34375 L 2.53125 -3.34375 L 1.234375 0 L 0 0 L 4.15625 -10.546875 L 5.171875 -10.546875 L 9.296875 0 Z M 6.359375 -4.4375 L 5.140625 -7.6875 C 4.972656 -8.101562 4.804688 -8.609375 4.640625 -9.203125 C 4.535156 -8.742188 4.382812 -8.238281 4.1875 -7.6875 L 2.953125 -4.4375 Z M 6.359375 -4.4375 "/></g></g><g transform="translate(1368.05829, 107.264543)"><g/></g><g transform="translate(1371.878189, 107.264543)"><g><path d="M 5.9375 -9.5625 C 4.78125 -9.5625 3.867188 -9.175781 3.203125 -8.40625 C 2.535156 -7.632812 2.203125 -6.582031 2.203125 -5.25 C 2.203125 -3.875 2.523438 -2.8125 3.171875 -2.0625 C 3.816406 -1.3125 4.734375 -0.9375 5.921875 -0.9375 C 6.648438 -0.9375 7.484375 -1.066406 8.421875 -1.328125 L 8.421875 -0.265625 C 7.703125 0.00390625 6.804688 0.140625 5.734375 0.140625 C 4.191406 0.140625 3 -0.328125 2.15625 -1.265625 C 1.3125 -2.203125 0.890625 -3.535156 0.890625 -5.265625 C 0.890625 -6.347656 1.09375 -7.296875 1.5 -8.109375 C 1.90625 -8.921875 2.488281 -9.546875 3.25 -9.984375 C 4.019531 -10.421875 4.921875 -10.640625 5.953125 -10.640625 C 7.054688 -10.640625 8.019531 -10.441406 8.84375 -10.046875 L 8.328125 -9 C 7.523438 -9.375 6.726562 -9.5625 5.9375 -9.5625 Z M 5.9375 -9.5625 "/></g></g><g transform="translate(1381.155088, 107.264543)"><g><path d="M 4.59375 0.140625 C 3.425781 0.140625 2.503906 -0.210938 1.828125 -0.921875 C 1.160156 -1.628906 0.828125 -2.613281 0.828125 -3.875 C 0.828125 -5.132812 1.140625 -6.140625 1.765625 -6.890625 C 2.390625 -7.640625 3.226562 -8.015625 4.28125 -8.015625 C 5.257812 -8.015625 6.035156 -7.6875 6.609375 -7.03125 C 7.191406 -6.382812 7.484375 -5.53125 7.484375 -4.46875 L 7.484375 -3.71875 L 2.0625 -3.71875 C 2.082031 -2.789062 2.3125 -2.085938 2.75 -1.609375 C 3.195312 -1.128906 3.820312 -0.890625 4.625 -0.890625 C 5.476562 -0.890625 6.316406 -1.066406 7.140625 -1.421875 L 7.140625 -0.359375 C 6.722656 -0.179688 6.328125 -0.0546875 5.953125 0.015625 C 5.578125 0.0976562 5.125 0.140625 4.59375 0.140625 Z M 4.265625 -7.015625 C 3.628906 -7.015625 3.125 -6.804688 2.75 -6.390625 C 2.375 -5.984375 2.15625 -5.414062 2.09375 -4.6875 L 6.203125 -4.6875 C 6.203125 -5.4375 6.035156 -6.007812 5.703125 -6.40625 C 5.367188 -6.8125 4.890625 -7.015625 4.265625 -7.015625 Z M 4.265625 -7.015625 "/></g></g><g transform="translate(1389.405209, 107.264543)"><g><path d="M 4.859375 -8.015625 C 5.203125 -8.015625 5.515625 -7.984375 5.796875 -7.921875 L 5.625 -6.8125 C 5.300781 -6.882812 5.015625 -6.921875 4.765625 -6.921875 C 4.128906 -6.921875 3.582031 -6.660156 3.125 -6.140625 C 2.675781 -5.628906 2.453125 -4.988281 2.453125 -4.21875 L 2.453125 0 L 1.265625 0 L 1.265625 -7.875 L 2.25 -7.875 L 2.390625 -6.40625 L 2.4375 -6.40625 C 2.726562 -6.914062 3.078125 -7.3125 3.484375 -7.59375 C 3.898438 -7.875 4.359375 -8.015625 4.859375 -8.015625 Z M 4.859375 -8.015625 "/></g></g><g transform="translate(1395.407908, 107.264543)"><g><path d="M 2.984375 0 L 0 -7.875 L 1.28125 -7.875 L 2.96875 -3.203125 C 3.351562 -2.109375 3.578125 -1.398438 3.640625 -1.078125 L 3.703125 -1.078125 C 3.753906 -1.328125 3.921875 -1.847656 4.203125 -2.640625 C 4.484375 -3.441406 5.113281 -5.1875 6.09375 -7.875 L 7.359375 -7.875 L 4.375 0 Z M 2.984375 0 "/></g></g><g transform="translate(1402.774857, 107.264543)"><g><path d="M 4.59375 0.140625 C 3.425781 0.140625 2.503906 -0.210938 1.828125 -0.921875 C 1.160156 -1.628906 0.828125 -2.613281 0.828125 -3.875 C 0.828125 -5.132812 1.140625 -6.140625 1.765625 -6.890625 C 2.390625 -7.640625 3.226562 -8.015625 4.28125 -8.015625 C 5.257812 -8.015625 6.035156 -7.6875 6.609375 -7.03125 C 7.191406 -6.382812 7.484375 -5.53125 7.484375 -4.46875 L 7.484375 -3.71875 L 2.0625 -3.71875 C 2.082031 -2.789062 2.3125 -2.085938 2.75 -1.609375 C 3.195312 -1.128906 3.820312 -0.890625 4.625 -0.890625 C 5.476562 -0.890625 6.316406 -1.066406 7.140625 -1.421875 L 7.140625 -0.359375 C 6.722656 -0.179688 6.328125 -0.0546875 5.953125 0.015625 C 5.578125 0.0976562 5.125 0.140625 4.59375 0.140625 Z M 4.265625 -7.015625 C 3.628906 -7.015625 3.125 -6.804688 2.75 -6.390625 C 2.375 -5.984375 2.15625 -5.414062 2.09375 -4.6875 L 6.203125 -4.6875 C 6.203125 -5.4375 6.035156 -6.007812 5.703125 -6.40625 C 5.367188 -6.8125 4.890625 -7.015625 4.265625 -7.015625 Z M 4.265625 -7.015625 "/></g></g><g transform="translate(1411.024978, 107.264543)"><g><path d="M 6.625 -1.0625 L 6.546875 -1.0625 C 6.003906 -0.257812 5.179688 0.140625 4.078125 0.140625 C 3.054688 0.140625 2.257812 -0.207031 1.6875 -0.90625 C 1.113281 -1.613281 0.828125 -2.613281 0.828125 -3.90625 C 0.828125 -5.207031 1.113281 -6.21875 1.6875 -6.9375 C 2.257812 -7.65625 3.054688 -8.015625 4.078125 -8.015625 C 5.148438 -8.015625 5.972656 -7.625 6.546875 -6.84375 L 6.640625 -6.84375 L 6.578125 -7.421875 L 6.546875 -7.96875 L 6.546875 -11.171875 L 7.75 -11.171875 L 7.75 0 L 6.78125 0 Z M 4.234375 -0.859375 C 5.046875 -0.859375 5.632812 -1.078125 6 -1.515625 C 6.363281 -1.960938 6.546875 -2.675781 6.546875 -3.65625 L 6.546875 -3.90625 C 6.546875 -5.019531 6.359375 -5.816406 5.984375 -6.296875 C 5.617188 -6.773438 5.03125 -7.015625 4.21875 -7.015625 C 3.519531 -7.015625 2.984375 -6.742188 2.609375 -6.203125 C 2.242188 -5.660156 2.0625 -4.890625 2.0625 -3.890625 C 2.0625 -2.890625 2.242188 -2.132812 2.609375 -1.625 C 2.984375 -1.113281 3.523438 -0.859375 4.234375 -0.859375 Z M 4.234375 -0.859375 "/></g></g><g transform="translate(1420.036206, 107.264543)"><g/></g><g transform="translate(1423.856106, 107.264543)"><g><path d="M 5.9375 -9.5625 C 4.78125 -9.5625 3.867188 -9.175781 3.203125 -8.40625 C 2.535156 -7.632812 2.203125 -6.582031 2.203125 -5.25 C 2.203125 -3.875 2.523438 -2.8125 3.171875 -2.0625 C 3.816406 -1.3125 4.734375 -0.9375 5.921875 -0.9375 C 6.648438 -0.9375 7.484375 -1.066406 8.421875 -1.328125 L 8.421875 -0.265625 C 7.703125 0.00390625 6.804688 0.140625 5.734375 0.140625 C 4.191406 0.140625 3 -0.328125 2.15625 -1.265625 C 1.3125 -2.203125 0.890625 -3.535156 0.890625 -5.265625 C 0.890625 -6.347656 1.09375 -7.296875 1.5 -8.109375 C 1.90625 -8.921875 2.488281 -9.546875 3.25 -9.984375 C 4.019531 -10.421875 4.921875 -10.640625 5.953125 -10.640625 C 7.054688 -10.640625 8.019531 -10.441406 8.84375 -10.046875 L 8.328125 -9 C 7.523438 -9.375 6.726562 -9.5625 5.9375 -9.5625 Z M 5.9375 -9.5625 "/></g></g><g transform="translate(1433.133004, 107.264543)"><g><path d="M 8.0625 -3.9375 C 8.0625 -2.65625 7.734375 -1.65625 7.078125 -0.9375 C 6.429688 -0.21875 5.539062 0.140625 4.40625 0.140625 C 3.707031 0.140625 3.082031 -0.0195312 2.53125 -0.34375 C 1.988281 -0.675781 1.566406 -1.148438 1.265625 -1.765625 C 0.972656 -2.390625 0.828125 -3.113281 0.828125 -3.9375 C 0.828125 -5.21875 1.144531 -6.21875 1.78125 -6.9375 C 2.425781 -7.65625 3.316406 -8.015625 4.453125 -8.015625 C 5.554688 -8.015625 6.429688 -7.644531 7.078125 -6.90625 C 7.734375 -6.175781 8.0625 -5.1875 8.0625 -3.9375 Z M 2.0625 -3.9375 C 2.0625 -2.9375 2.257812 -2.171875 2.65625 -1.640625 C 3.0625 -1.117188 3.65625 -0.859375 4.4375 -0.859375 C 5.21875 -0.859375 5.804688 -1.117188 6.203125 -1.640625 C 6.609375 -2.160156 6.8125 -2.925781 6.8125 -3.9375 C 6.8125 -4.9375 6.609375 -5.695312 6.203125 -6.21875 C 5.804688 -6.738281 5.210938 -7 4.421875 -7 C 3.640625 -7 3.050781 -6.742188 2.65625 -6.234375 C 2.257812 -5.722656 2.0625 -4.957031 2.0625 -3.9375 Z M 2.0625 -3.9375 "/></g></g><g transform="translate(1442.014988, 107.264543)"><g><path d="M 11.296875 0 L 11.296875 -5.125 C 11.296875 -5.75 11.160156 -6.21875 10.890625 -6.53125 C 10.617188 -6.84375 10.203125 -7 9.640625 -7 C 8.898438 -7 8.351562 -6.785156 8 -6.359375 C 7.644531 -5.929688 7.46875 -5.273438 7.46875 -4.390625 L 7.46875 0 L 6.28125 0 L 6.28125 -5.125 C 6.28125 -5.75 6.144531 -6.21875 5.875 -6.53125 C 5.601562 -6.84375 5.179688 -7 4.609375 -7 C 3.867188 -7 3.320312 -6.773438 2.96875 -6.328125 C 2.625 -5.878906 2.453125 -5.144531 2.453125 -4.125 L 2.453125 0 L 1.265625 0 L 1.265625 -7.875 L 2.234375 -7.875 L 2.421875 -6.796875 L 2.484375 -6.796875 C 2.710938 -7.171875 3.03125 -7.46875 3.4375 -7.6875 C 3.84375 -7.90625 4.300781 -8.015625 4.8125 -8.015625 C 6.039062 -8.015625 6.84375 -7.566406 7.21875 -6.671875 L 7.28125 -6.671875 C 7.507812 -7.085938 7.847656 -7.414062 8.296875 -7.65625 C 8.742188 -7.894531 9.253906 -8.015625 9.828125 -8.015625 C 10.710938 -8.015625 11.375 -7.785156 11.8125 -7.328125 C 12.257812 -6.867188 12.484375 -6.140625 12.484375 -5.140625 L 12.484375 0 Z M 11.296875 0 "/></g></g><g transform="translate(1455.693387, 107.264543)"><g><path d="M 4.921875 0.140625 C 4.410156 0.140625 3.941406 0.046875 3.515625 -0.140625 C 3.097656 -0.328125 2.742188 -0.617188 2.453125 -1.015625 L 2.375 -1.015625 C 2.425781 -0.554688 2.453125 -0.117188 2.453125 0.296875 L 2.453125 3.53125 L 1.265625 3.53125 L 1.265625 -7.875 L 2.234375 -7.875 L 2.390625 -6.796875 L 2.453125 -6.796875 C 2.765625 -7.222656 3.125 -7.53125 3.53125 -7.71875 C 3.9375 -7.914062 4.398438 -8.015625 4.921875 -8.015625 C 5.960938 -8.015625 6.765625 -7.65625 7.328125 -6.9375 C 7.898438 -6.226562 8.1875 -5.226562 8.1875 -3.9375 C 8.1875 -2.644531 7.898438 -1.640625 7.328125 -0.921875 C 6.753906 -0.210938 5.953125 0.140625 4.921875 0.140625 Z M 4.75 -7 C 3.945312 -7 3.363281 -6.773438 3 -6.328125 C 2.644531 -5.890625 2.460938 -5.179688 2.453125 -4.203125 L 2.453125 -3.9375 C 2.453125 -2.832031 2.632812 -2.039062 3 -1.5625 C 3.375 -1.09375 3.96875 -0.859375 4.78125 -0.859375 C 5.457031 -0.859375 5.988281 -1.128906 6.375 -1.671875 C 6.757812 -2.222656 6.953125 -2.984375 6.953125 -3.953125 C 6.953125 -4.929688 6.757812 -5.679688 6.375 -6.203125 C 5.988281 -6.734375 5.445312 -7 4.75 -7 Z M 4.75 -7 "/></g></g><g transform="translate(1464.704616, 107.264543)"><g><path d="M 6.109375 0 L 5.859375 -1.125 L 5.8125 -1.125 C 5.414062 -0.625 5.019531 -0.285156 4.625 -0.109375 C 4.238281 0.0546875 3.753906 0.140625 3.171875 0.140625 C 2.390625 0.140625 1.773438 -0.0546875 1.328125 -0.453125 C 0.890625 -0.859375 0.671875 -1.429688 0.671875 -2.171875 C 0.671875 -3.765625 1.941406 -4.597656 4.484375 -4.671875 L 5.828125 -4.71875 L 5.828125 -5.203125 C 5.828125 -5.816406 5.691406 -6.269531 5.421875 -6.5625 C 5.160156 -6.863281 4.738281 -7.015625 4.15625 -7.015625 C 3.5 -7.015625 2.753906 -6.8125 1.921875 -6.40625 L 1.5625 -7.328125 C 1.945312 -7.535156 2.367188 -7.695312 2.828125 -7.8125 C 3.296875 -7.9375 3.757812 -8 4.21875 -8 C 5.15625 -8 5.847656 -7.789062 6.296875 -7.375 C 6.753906 -6.957031 6.984375 -6.289062 6.984375 -5.375 L 6.984375 0 Z M 3.40625 -0.84375 C 4.144531 -0.84375 4.726562 -1.046875 5.15625 -1.453125 C 5.582031 -1.859375 5.796875 -2.425781 5.796875 -3.15625 L 5.796875 -3.875 L 4.609375 -3.8125 C 3.660156 -3.78125 2.972656 -3.632812 2.546875 -3.375 C 2.128906 -3.113281 1.921875 -2.707031 1.921875 -2.15625 C 1.921875 -1.726562 2.050781 -1.398438 2.3125 -1.171875 C 2.570312 -0.953125 2.9375 -0.84375 3.40625 -0.84375 Z M 3.40625 -0.84375 "/></g></g><g transform="translate(1472.882934, 107.264543)"><g><path d="M 6.640625 0 L 6.640625 -5.09375 C 6.640625 -5.726562 6.492188 -6.203125 6.203125 -6.515625 C 5.910156 -6.835938 5.457031 -7 4.84375 -7 C 4.019531 -7 3.414062 -6.773438 3.03125 -6.328125 C 2.644531 -5.890625 2.453125 -5.15625 2.453125 -4.125 L 2.453125 0 L 1.265625 0 L 1.265625 -7.875 L 2.234375 -7.875 L 2.421875 -6.796875 L 2.484375 -6.796875 C 2.722656 -7.179688 3.0625 -7.476562 3.5 -7.6875 C 3.945312 -7.90625 4.441406 -8.015625 4.984375 -8.015625 C 5.929688 -8.015625 6.644531 -7.785156 7.125 -7.328125 C 7.601562 -6.867188 7.84375 -6.140625 7.84375 -5.140625 L 7.84375 0 Z M 6.640625 0 "/></g></g><g transform="translate(1481.908523, 107.264543)"><g><path d="M 0.015625 -7.875 L 1.296875 -7.875 L 3.015625 -3.375 C 3.390625 -2.351562 3.625 -1.613281 3.71875 -1.15625 L 3.78125 -1.15625 C 3.84375 -1.40625 3.972656 -1.820312 4.171875 -2.40625 C 4.367188 -3 5.015625 -4.820312 6.109375 -7.875 L 7.390625 -7.875 L 4.015625 1.09375 C 3.679688 1.976562 3.289062 2.601562 2.84375 2.96875 C 2.394531 3.34375 1.84375 3.53125 1.1875 3.53125 C 0.820312 3.53125 0.460938 3.488281 0.109375 3.40625 L 0.109375 2.453125 C 0.378906 2.515625 0.675781 2.546875 1 2.546875 C 1.8125 2.546875 2.394531 2.082031 2.75 1.15625 L 3.1875 0.046875 Z M 0.015625 -7.875 "/></g></g></g></svg>