<svg xmlns="http://www.w3.org/2000/svg" xmlns:xlink="http://www.w3.org/1999/xlink" width="230" zoomAndPan="magnify" viewBox="0 0 172.5 30.000001" height="40" preserveAspectRatio="xMidYMid meet" version="1.0"><defs><g/></defs><g fill="#8fbcbb" fill-opacity="1"><g transform="translate(4.84916, 15.625801)"><g><path d="M 1.636719 0 L 3.925781 0 L 3.925781 -12.722656 L 1.636719 -12.722656 Z M 1.636719 0 "/></g></g></g><g fill="#8fbcbb" fill-opacity="1"><g transform="translate(10.412548, 15.625801)"><g><path d="M 9.253906 -12.722656 L 9.253906 -3.828125 L 3.90625 -12.722656 L 1.636719 -12.722656 L 1.636719 0 L 3.835938 0 L 3.835938 -8.941406 L 9.164062 0 L 11.453125 0 L 11.453125 -12.722656 Z M 9.253906 -12.722656 "/></g></g></g><g fill="#8fbcbb" fill-opacity="1"><g transform="translate(23.501814, 15.625801)"><g><path d="M 9.253906 -12.722656 L 9.253906 -3.828125 L 3.90625 -12.722656 L 1.636719 -12.722656 L 1.636719 0 L 3.835938 0 L 3.835938 -8.941406 L 9.164062 0 L 11.453125 0 L 11.453125 -12.722656 Z M 9.253906 -12.722656 "/></g></g></g><g fill="#8fbcbb" fill-opacity="1"><g transform="translate(36.59108, 15.625801)"><g><path d="M 6.878906 0.179688 C 11.082031 0.179688 13.019531 -2.898438 13.019531 -6.363281 C 13.019531 -9.832031 11.082031 -12.910156 6.878906 -12.910156 C 2.675781 -12.910156 0.738281 -9.832031 0.738281 -6.363281 C 0.738281 -2.898438 2.675781 0.179688 6.878906 0.179688 Z M 6.878906 -1.84375 C 4.148438 -1.84375 3.152344 -3.960938 3.152344 -6.363281 C 3.152344 -8.761719 4.148438 -10.875 6.878906 -10.875 C 9.605469 -10.875 10.605469 -8.761719 10.605469 -6.363281 C 10.605469 -3.960938 9.605469 -1.84375 6.878906 -1.84375 Z M 6.878906 -1.84375 "/></g></g></g><g fill="#8fbcbb" fill-opacity="1"><g transform="translate(50.346512, 15.625801)"><g><path d="M 9.480469 -12.722656 L 6.066406 -3.710938 L 2.636719 -12.722656 L 0.109375 -12.722656 L 5.203125 0 L 6.914062 0 L 11.984375 -12.722656 Z M 9.480469 -12.722656 "/></g></g></g><g fill="#8fbcbb" fill-opacity="1"><g transform="translate(62.436534, 15.625801)"><g><path d="M 0.109375 0 L 2.601562 0 L 3.628906 -2.765625 L 8.5 -2.765625 L 9.515625 0 L 11.984375 0 L 6.914062 -12.722656 L 5.203125 -12.722656 Z M 4.347656 -4.71875 L 6.066406 -9.363281 L 7.777344 -4.71875 Z M 4.347656 -4.71875 "/></g></g></g><g fill="#8fbcbb" fill-opacity="1"><g transform="translate(74.526557, 15.625801)"><g><path d="M 4.167969 0 L 6.457031 0 L 6.457031 -10.675781 L 10.433594 -10.675781 L 10.433594 -12.722656 L 0.179688 -12.722656 L 0.179688 -10.675781 L 4.167969 -10.675781 Z M 4.167969 0 "/></g></g></g><g fill="#8fbcbb" fill-opacity="1"><g transform="translate(85.149207, 15.625801)"><g><path d="M 1.636719 0 L 3.925781 0 L 3.925781 -12.722656 L 1.636719 -12.722656 Z M 1.636719 0 "/></g></g></g><g fill="#8fbcbb" fill-opacity="1"><g transform="translate(90.712596, 15.625801)"><g><path d="M 6.878906 0.179688 C 11.082031 0.179688 13.019531 -2.898438 13.019531 -6.363281 C 13.019531 -9.832031 11.082031 -12.910156 6.878906 -12.910156 C 2.675781 -12.910156 0.738281 -9.832031 0.738281 -6.363281 C 0.738281 -2.898438 2.675781 0.179688 6.878906 0.179688 Z M 6.878906 -1.84375 C 4.148438 -1.84375 3.152344 -3.960938 3.152344 -6.363281 C 3.152344 -8.761719 4.148438 -10.875 6.878906 -10.875 C 9.605469 -10.875 10.605469 -8.761719 10.605469 -6.363281 C 10.605469 -3.960938 9.605469 -1.84375 6.878906 -1.84375 Z M 6.878906 -1.84375 "/></g></g></g><g fill="#8fbcbb" fill-opacity="1"><g transform="translate(104.468028, 15.625801)"><g><path d="M 9.253906 -12.722656 L 9.253906 -3.828125 L 3.90625 -12.722656 L 1.636719 -12.722656 L 1.636719 0 L 3.835938 0 L 3.835938 -8.941406 L 9.164062 0 L 11.453125 0 L 11.453125 -12.722656 Z M 9.253906 -12.722656 "/></g></g></g><g fill="#e9f0ef" fill-opacity="1"><g transform="translate(117.55013, 15.625801)"><g><path d="M 4.167969 0 L 6.457031 0 L 6.457031 -10.675781 L 10.433594 -10.675781 L 10.433594 -12.722656 L 0.179688 -12.722656 L 0.179688 -10.675781 L 4.167969 -10.675781 Z M 4.167969 0 "/></g></g></g><g fill="#e9f0ef" fill-opacity="1"><g transform="translate(128.172781, 15.625801)"><g><path d="M 1.636719 0 L 10.101562 0 L 10.101562 -2.160156 L 3.925781 -2.160156 L 3.925781 -5.3125 L 9.679688 -5.3125 L 9.679688 -7.410156 L 3.925781 -7.410156 L 3.925781 -10.625 L 10.101562 -10.625 L 10.101562 -12.722656 L 1.636719 -12.722656 Z M 1.636719 0 "/></g></g></g><g fill="#e9f0ef" fill-opacity="1"><g transform="translate(139.380583, 15.625801)"><g><path d="M 0.109375 0 L 2.601562 0 L 3.628906 -2.765625 L 8.5 -2.765625 L 9.515625 0 L 11.984375 0 L 6.914062 -12.722656 L 5.203125 -12.722656 Z M 4.347656 -4.71875 L 6.066406 -9.363281 L 7.777344 -4.71875 Z M 4.347656 -4.71875 "/></g></g></g><g fill="#e9f0ef" fill-opacity="1"><g transform="translate(151.470605, 15.625801)"><g><path d="M 11.46875 -12.722656 L 8.09375 -3.671875 L 4.71875 -12.722656 L 1.636719 -12.722656 L 1.636719 0 L 3.835938 0 L 3.835938 -9.5 L 6.984375 -1.105469 L 9.199219 -1.105469 L 12.351562 -9.5 L 12.351562 0 L 14.546875 0 L 14.546875 -12.722656 Z M 11.46875 -12.722656 "/></g></g></g><g fill="#e9f0ef" fill-opacity="1"><g transform="translate(6.179871, 25.929778)"><g><path d="M 4.730469 0 L 5.15625 0 L 2.894531 -5.757812 L 2.429688 -5.757812 L 0.179688 0 L 0.617188 0 L 1.203125 -1.542969 L 4.144531 -1.542969 Z M 1.332031 -1.882812 L 2.632812 -5.328125 L 2.707031 -5.328125 L 4.015625 -1.882812 Z M 1.332031 -1.882812 "/></g></g><g transform="translate(11.514096, 25.929778)"><g/></g><g transform="translate(13.557555, 25.929778)"><g><path d="M 3.597656 0.0742188 C 5.089844 0.0742188 6.367188 -0.722656 6.695312 -2.132812 L 6.304688 -2.132812 C 5.984375 -0.949219 4.890625 -0.304688 3.597656 -0.304688 C 2.070312 -0.304688 0.816406 -1.222656 0.816406 -2.886719 C 0.816406 -4.53125 2.070312 -5.457031 3.597656 -5.457031 C 4.871094 -5.457031 5.953125 -4.824219 6.289062 -3.675781 L 6.683594 -3.675781 C 6.335938 -5.050781 5.078125 -5.835938 3.597656 -5.835938 C 1.863281 -5.835938 0.4375 -4.746094 0.4375 -2.886719 C 0.4375 -1.011719 1.863281 0.0742188 3.597656 0.0742188 Z M 3.597656 0.0742188 "/></g></g><g transform="translate(20.631943, 25.929778)"><g><path d="M 4.296875 -2.082031 C 4.300781 -3.355469 3.632812 -4.039062 2.394531 -4.039062 C 1.140625 -4.039062 0.367188 -3.269531 0.367188 -1.988281 C 0.367188 -0.691406 1.128906 0.0742188 2.398438 0.0742188 C 3.414062 0.0742188 4.0625 -0.46875 4.296875 -1.269531 L 3.925781 -1.269531 C 3.734375 -0.664062 3.21875 -0.265625 2.386719 -0.265625 C 1.367188 -0.265625 0.773438 -0.816406 0.765625 -1.949219 L 4.289062 -1.949219 Z M 2.390625 -3.710938 C 3.371094 -3.710938 3.835938 -3.238281 3.886719 -2.265625 L 0.777344 -2.265625 C 0.867188 -3.207031 1.425781 -3.710938 2.390625 -3.710938 Z M 2.390625 -3.710938 "/></g></g></g><g fill="#e9f0ef" fill-opacity="1"><g transform="translate(25.317872, 25.929778)"><g><path d="M 2.257812 -4.042969 C 1.789062 -4.042969 1.371094 -3.824219 1.15625 -3.253906 L 1.15625 -3.960938 L 0.773438 -3.960938 L 0.773438 0 L 1.15625 0 L 1.15625 -2.636719 C 1.15625 -3.394531 1.683594 -3.695312 2.175781 -3.695312 C 2.664062 -3.695312 2.96875 -3.53125 2.96875 -2.847656 L 2.96875 -2.527344 L 3.351562 -2.527344 L 3.351562 -2.929688 C 3.351562 -3.722656 2.96875 -4.042969 2.257812 -4.042969 Z M 2.257812 -4.042969 "/></g></g><g transform="translate(28.885396, 25.929778)"><g><path d="M 1.605469 0 L 2.09375 0 L 3.617188 -3.960938 L 3.179688 -3.960938 L 1.859375 -0.335938 L 1.84375 -0.335938 L 0.515625 -3.960938 L 0.0859375 -3.960938 Z M 1.605469 0 "/></g></g></g><g fill="#e9f0ef" fill-opacity="1"><g transform="translate(32.589403, 25.929778)"><g><path d="M 4.296875 -2.082031 C 4.300781 -3.355469 3.632812 -4.039062 2.394531 -4.039062 C 1.140625 -4.039062 0.367188 -3.269531 0.367188 -1.988281 C 0.367188 -0.691406 1.128906 0.0742188 2.398438 0.0742188 C 3.414062 0.0742188 4.0625 -0.46875 4.296875 -1.269531 L 3.925781 -1.269531 C 3.734375 -0.664062 3.21875 -0.265625 2.386719 -0.265625 C 1.367188 -0.265625 0.773438 -0.816406 0.765625 -1.949219 L 4.289062 -1.949219 Z M 2.390625 -3.710938 C 3.371094 -3.710938 3.835938 -3.238281 3.886719 -2.265625 L 0.777344 -2.265625 C 0.867188 -3.207031 1.425781 -3.710938 2.390625 -3.710938 Z M 2.390625 -3.710938 "/></g></g><g transform="translate(37.275332, 25.929778)"><g><path d="M 3.824219 -5.757812 L 3.816406 -3.007812 C 3.519531 -3.628906 3.046875 -4.042969 2.203125 -4.042969 C 1.015625 -4.042969 0.386719 -3.203125 0.386719 -1.988281 C 0.386719 -0.75 1.03125 0.0742188 2.203125 0.0742188 C 3.035156 0.0742188 3.519531 -0.324219 3.824219 -0.980469 L 3.824219 0 L 4.199219 0 L 4.199219 -5.757812 Z M 2.261719 -0.273438 C 1.261719 -0.273438 0.765625 -0.972656 0.765625 -1.988281 C 0.765625 -2.996094 1.261719 -3.699219 2.261719 -3.699219 C 3.289062 -3.699219 3.84375 -2.933594 3.84375 -1.988281 C 3.84375 -1.035156 3.292969 -0.273438 2.261719 -0.273438 Z M 2.261719 -0.273438 "/></g></g><g transform="translate(42.173569, 25.929778)"><g/></g><g transform="translate(44.217028, 25.929778)"><g><path d="M 3.597656 0.0742188 C 5.089844 0.0742188 6.367188 -0.722656 6.695312 -2.132812 L 6.304688 -2.132812 C 5.984375 -0.949219 4.890625 -0.304688 3.597656 -0.304688 C 2.070312 -0.304688 0.816406 -1.222656 0.816406 -2.886719 C 0.816406 -4.53125 2.070312 -5.457031 3.597656 -5.457031 C 4.871094 -5.457031 5.953125 -4.824219 6.289062 -3.675781 L 6.683594 -3.675781 C 6.335938 -5.050781 5.078125 -5.835938 3.597656 -5.835938 C 1.863281 -5.835938 0.4375 -4.746094 0.4375 -2.886719 C 0.4375 -1.011719 1.863281 0.0742188 3.597656 0.0742188 Z M 3.597656 0.0742188 "/></g></g></g><g fill="#e9f0ef" fill-opacity="1"><g transform="translate(51.291416, 25.929778)"><g><path d="M 2.40625 0.0742188 C 3.675781 0.0742188 4.449219 -0.734375 4.449219 -1.988281 C 4.449219 -3.226562 3.675781 -4.042969 2.40625 -4.042969 C 1.140625 -4.042969 0.355469 -3.226562 0.355469 -1.988281 C 0.355469 -0.734375 1.148438 0.0742188 2.40625 0.0742188 Z M 2.40625 -0.265625 C 1.351562 -0.265625 0.757812 -0.933594 0.757812 -1.988281 C 0.757812 -3.03125 1.351562 -3.695312 2.40625 -3.695312 C 3.457031 -3.695312 4.058594 -3.03125 4.058594 -1.988281 C 4.058594 -0.933594 3.457031 -0.265625 2.40625 -0.265625 Z M 2.40625 -0.265625 "/></g></g><g transform="translate(56.102455, 25.929778)"><g><path d="M 0.695312 0 L 1.089844 0 L 1.089844 -2.628906 C 1.089844 -3.324219 1.570312 -3.695312 2.1875 -3.695312 C 2.765625 -3.695312 3.1875 -3.359375 3.1875 -2.613281 L 3.1875 0 L 3.585938 0 L 3.585938 -2.625 C 3.585938 -3.324219 4.054688 -3.695312 4.683594 -3.695312 C 5.234375 -3.695312 5.667969 -3.378906 5.667969 -2.65625 L 5.667969 0 L 6.058594 0 L 6.058594 -2.734375 C 6.058594 -3.578125 5.453125 -4.042969 4.707031 -4.042969 C 4.109375 -4.042969 3.671875 -3.761719 3.484375 -3.269531 C 3.28125 -3.78125 2.800781 -4.042969 2.265625 -4.042969 C 1.738281 -4.042969 1.316406 -3.800781 1.089844 -3.390625 L 1.089844 -3.960938 L 0.695312 -3.960938 Z M 0.695312 0 "/></g></g><g transform="translate(62.778767, 25.929778)"><g><path d="M 2.648438 -4.042969 C 1.851562 -4.042969 1.367188 -3.617188 1.078125 -3.007812 L 1.074219 -3.960938 L 0.699219 -3.960938 L 0.699219 1.671875 L 1.082031 1.671875 L 1.082031 -0.960938 C 1.371094 -0.355469 1.851562 0.0742188 2.648438 0.0742188 C 3.890625 0.0742188 4.5 -0.734375 4.5 -1.988281 C 4.5 -3.226562 3.890625 -4.042969 2.648438 -4.042969 Z M 2.613281 -0.273438 C 1.625 -0.273438 1.054688 -1.035156 1.054688 -1.988281 C 1.054688 -2.925781 1.625 -3.6875 2.613281 -3.6875 C 3.644531 -3.6875 4.136719 -3.03125 4.136719 -1.988281 C 4.136719 -0.933594 3.644531 -0.273438 2.613281 -0.273438 Z M 2.613281 -0.273438 "/></g></g></g><g fill="#e9f0ef" fill-opacity="1"><g transform="translate(67.673212, 25.929778)"><g><path d="M 4.210938 -0.257812 C 3.925781 -0.257812 3.832031 -0.488281 3.832031 -0.78125 L 3.832031 -2.707031 C 3.832031 -3.625 3.113281 -4.03125 2.164062 -4.03125 C 1.25 -4.03125 0.546875 -3.632812 0.503906 -2.726562 L 0.894531 -2.726562 C 0.890625 -3.402344 1.480469 -3.691406 2.15625 -3.691406 C 2.859375 -3.691406 3.449219 -3.390625 3.449219 -2.769531 L 3.449219 -2.375 C 3.199219 -2.390625 2.957031 -2.402344 2.730469 -2.402344 C 1.320312 -2.402344 0.40625 -2.007812 0.40625 -1.019531 C 0.40625 -0.273438 1.03125 0.078125 1.824219 0.078125 C 2.421875 0.078125 3.140625 -0.132812 3.449219 -1.007812 C 3.460938 -0.300781 3.582031 0.0625 4.109375 0.0625 C 4.234375 0.0625 4.382812 0.0429688 4.5625 0 L 4.5625 -0.335938 C 4.421875 -0.28125 4.308594 -0.257812 4.210938 -0.257812 Z M 1.949219 -0.25 C 1.273438 -0.25 0.804688 -0.476562 0.804688 -1.027344 C 0.804688 -1.789062 1.546875 -2.097656 2.753906 -2.097656 C 2.96875 -2.097656 3.199219 -2.085938 3.441406 -2.066406 C 3.441406 -1.351562 3.15625 -0.25 1.949219 -0.25 Z M 1.949219 -0.25 "/></g></g></g><g fill="#e9f0ef" fill-opacity="1"><g transform="translate(72.313647, 25.929778)"><g><path d="M 2.464844 -4.042969 C 1.851562 -4.042969 1.363281 -3.796875 1.09375 -3.367188 L 1.09375 -3.960938 L 0.695312 -3.960938 L 0.695312 0 L 1.09375 0 L 1.09375 -2.519531 C 1.09375 -3.28125 1.652344 -3.695312 2.410156 -3.695312 C 3.058594 -3.695312 3.628906 -3.378906 3.628906 -2.582031 L 3.628906 0 L 4.03125 0 L 4.03125 -2.664062 C 4.03125 -3.570312 3.304688 -4.042969 2.464844 -4.042969 Z M 2.464844 -4.042969 "/></g></g><g transform="translate(76.946499, 25.929778)"><g><path d="M 3.308594 -3.960938 L 1.964844 -0.214844 L 1.929688 -0.171875 L 0.539062 -3.960938 L 0.078125 -3.960938 L 1.738281 0.257812 L 1.609375 0.582031 C 1.390625 1.152344 1.132812 1.332031 0.730469 1.332031 L 0.367188 1.332031 L 0.367188 1.671875 L 0.742188 1.671875 C 1.324219 1.671875 1.6875 1.417969 1.976562 0.671875 L 3.753906 -3.960938 Z M 3.308594 -3.960938 "/></g></g></g><g fill="#e9f0ef" fill-opacity="1"><g transform="translate(80.780669, 25.929778)"><g/></g></g></svg>